#!OML:ASF F:\VICON\USERDATA\INSTALL\rory3\rory3.ASF
:FULLY-SPECIFIED
:DEGREES
240
root 11.951 17.9268 12.6242 -3.44483 -36.2126 4.03776
lowerback 12.0162 1.22239 -4.0965
upperback 1.00989 1.04511 -0.157273
thorax -5.75376 0.603601 1.97144
lowerneck -15.9764 -10.458 -14.2036
upperneck 26.205 -15.6717 14.354
head 13.9637 -6.74676 5.21204
rclavicle 5.479e-014 9.34288e-015
rhumerus -32.4174 -10.6733 -82.4757
rradius 38.2964
rwrist 4.28259
rhand -15.782 11.0531
rfingers 7.12502
rthumb 10.4104 -18.6692
lclavicle 5.479e-014 9.34288e-015
lhumerus -36.4686 1.81918 78.8672
lradius 30.5523
lwrist -5.17115
lhand -17.6615 27.49
lfingers 7.12502
lthumb 8.59702 57.295
rfemur -23.1992 -17.7098 16.8364
rtibia 49.507
rfoot -12.8759 -1.98323
rtoes 12.4034
lfemur -2.85631 -0.964542 -19.7841
ltibia 18.7137
lfoot -7.77079 7.53554
ltoes -18.8769
241
root 11.9349 17.9276 12.6905 -3.35901 -37.5203 4.02516
lowerback 11.9232 1.27045 -4.08746
upperback 1.04887 1.11829 -0.0996853
thorax -5.66646 0.63761 2.01621
lowerneck -16.0214 -10.4931 -14.1047
upperneck 26.2308 -15.7254 14.2533
head 13.9725 -6.77063 5.14093
rclavicle -1.23346e-013 6.55989e-015
rhumerus -32.2771 -10.7047 -82.3481
rradius 38.2831
rwrist 3.93378
rhand -15.7409 10.904
rfingers 7.12502
rthumb 10.4501 -18.8163
lclavicle -1.23346e-013 6.55989e-015
lhumerus -36.3511 1.64093 78.7506
lradius 30.5725
lwrist -5.26454
lhand -17.5154 27.6636
lfingers 7.12502
lthumb 8.73804 57.4627
rfemur -23.7188 -17.8488 17.0709
rtibia 48.1557
rfoot -12.933 -2.82976
rtoes 11.7185
lfemur -2.46122 -0.715517 -19.8824
ltibia 18.6507
lfoot -7.93054 8.60231
ltoes -18.8849
242
root 11.9173 17.9293 12.748 -3.38208 -38.6959 4.30074
lowerback 11.9049 1.25664 -4.34603
upperback 0.975486 1.06492 -0.0977868
thorax -5.73535 0.620111 2.17261
lowerneck -15.8716 -10.4661 -14.0547
upperneck 26.2001 -15.7059 14.2014
head 13.912 -6.77414 5.11936
rclavicle 7.97623e-015 -1.59028e-015
rhumerus -32.3745 -10.5025 -82.2404
rradius 38.3907
rwrist 3.58613
rhand -15.6908 10.6702
rfingers 7.12502
rthumb 10.4984 -19.0477
lclavicle 7.97623e-015 -1.59028e-015
lhumerus -36.3681 1.62545 78.5624
lradius 30.5395
lwrist -5.3601
lhand -17.5191 28.029
lfingers 7.12502
lthumb 8.73439 57.8283
rfemur -24.3184 -18.0182 17.1207
rtibia 46.7183
rfoot -12.9176 -3.86418
rtoes 11.16
lfemur -2.15857 -0.489292 -20.2224
ltibia 18.4844
lfoot -7.95583 9.61526
ltoes -19.2512
243
root 11.8967 17.9326 12.7995 -3.35047 -39.8441 4.41458
lowerback 11.9332 1.1872 -4.42469
upperback 0.9327 0.957518 -0.128632
thorax -5.78964 0.570535 2.20201
lowerneck -15.7708 -10.4693 -14.1032
upperneck 26.1858 -15.7532 14.3017
head 13.9095 -6.79747 5.16119
rclavicle -2.19657e-014 -2.18663e-015
rhumerus -32.3664 -10.451 -82.2522
rradius 38.3922
rwrist 3.48578
rhand -15.8047 10.4655
rfingers 7.12502
rthumb 10.3886 -19.2578
lclavicle -2.19657e-014 -2.18663e-015
lhumerus -36.4581 1.74396 78.2332
lradius 30.5826
lwrist -5.41803
lhand -17.8445 28.0156
lfingers 7.12502
lthumb 8.4204 57.8277
rfemur -24.833 -17.937 17.3202
rtibia 45.2108
rfoot -12.8428 -5.1372
rtoes 12.8646
lfemur -1.75595 -0.209437 -20.3784
ltibia 18.1385
lfoot -7.8809 10.5152
ltoes -19.1279
244
root 11.8722 17.9367 12.8542 -3.25872 -41.0064 4.35411
lowerback 11.9596 1.1226 -4.34807
upperback 0.947738 0.88005 -0.132077
thorax -5.78158 0.529838 2.16819
lowerneck -15.7664 -10.5849 -14.2844
upperneck 26.1849 -15.958 14.51
head 13.99 -6.88459 5.23205
rclavicle 1.57785e-014 1.17283e-014
rhumerus -32.2117 -10.5732 -82.2573
rradius 38.2758
rwrist 3.57069
rhand -15.8614 10.4103
rfingers 7.12502
rthumb 10.3339 -19.3158
lclavicle 1.57785e-014 1.17283e-014
lhumerus -36.5217 1.65295 77.9533
lradius 30.5749
lwrist -5.52505
lhand -18.2839 27.236
lfingers 7.12502
lthumb 7.9963 57.0647
rfemur -25.212 -17.7424 17.6256
rtibia 43.6516
rfoot -12.6571 -6.46673
rtoes 14.9804
lfemur -1.19903 -0.0746207 -20.3905
ltibia 17.648
lfoot -7.81971 11.4915
ltoes -18.5891
